HIERARCHY
ROOT Hips
{
	OFFSET 0.00000 0.00000 0.00000
	CHANNELS 6 Xposition Yposition Zposition Zrotation Yrotation Xrotation 
	JOINT LHipJoint
	{
		OFFSET 0 0 0
		CHANNELS 3 Zrotation Yrotation Xrotation
		JOINT LeftHip
		{
			OFFSET 1.36337 -1.57426 1.11036
			CHANNELS 3 Zrotation Yrotation Xrotation
			JOINT LeftKnee
			{
				OFFSET 2.38468 -6.55187 0.00000
				CHANNELS 3 Zrotation Yrotation Xrotation
				JOINT LeftAnkle
				{
					OFFSET 2.37166 -6.51609 0.00000
					CHANNELS 3 Zrotation Yrotation Xrotation
					JOINT LeftToe
					{
						OFFSET 0.29078 -0.79891 2.01393
						CHANNELS 3 Zrotation Yrotation Xrotation
						End Site
						{
							OFFSET 0.00000 -0.00000 1.07924
						}
					}
				}
			}
		}
	}
	JOINT RHipJoint
	{
		OFFSET 0 0 0
		CHANNELS 3 Zrotation Yrotation Xrotation
		JOINT RightHip
		{
			OFFSET -1.36349 -1.57426 1.11036
			CHANNELS 3 Zrotation Yrotation Xrotation
			JOINT RightKnee
			{
				OFFSET -2.29562 -6.30717 0.00000
				CHANNELS 3 Zrotation Yrotation Xrotation
				JOINT RightAnkle
				{
					OFFSET -2.40985 -6.62100 0.00000
					CHANNELS 3 Zrotation Yrotation Xrotation
					JOINT RightToe
					{
						OFFSET -0.23197 -0.63733 1.92232
						CHANNELS 3 Zrotation Yrotation Xrotation
						End Site
						{
							OFFSET -0.00000 -0.00000 1.01562
						}
					}
				}
			}
		}
	}
	JOINT lowerback
	{
		OFFSET 0 0 0
		CHANNELS 3 Zrotation Yrotation Xrotation
		JOINT Chest
		{
			OFFSET -0.08565 2.03602 -0.24562
			CHANNELS 3 Zrotation Yrotation Xrotation
			JOINT Chest2
			{
				OFFSET -0.00036 2.05693 0.00216
				CHANNELS 3 Zrotation Yrotation Xrotation
				JOINT lowerneck
				{
					OFFSET 0 0 0
					CHANNELS 3 Zrotation Yrotation Xrotation
					JOINT Neck
					{
						OFFSET -0.03664 1.69515 0.31789
						CHANNELS 3 Zrotation Yrotation Xrotation
						JOINT Head
						{
							OFFSET 0.00932 1.70181 -0.46013
							CHANNELS 3 Zrotation Yrotation Xrotation
							End Site
							{
								OFFSET 0.01243 1.77620 -0.19377
							}
						}
					}
				}
				JOINT LeftCollar
				{
					OFFSET 0 0 0
					CHANNELS 3 Zrotation Yrotation Xrotation
					JOINT LeftShoulder
					{
						OFFSET 3.74344 0.81315 -0.36647
CHANNELS 3 Zrotation Xrotation Yrotation
						JOINT LeftElbow
						{
OFFSET 0 -4.971850 -0.000000
CHANNELS 3 Zrotation Xrotation Yrotation
							JOINT LeftWrist
							{
OFFSET 0 -3.358110 0.000000
CHANNELS 3 Zrotation Xrotation Yrotation
								JOINT lhand
								{
									OFFSET 0 0 0
CHANNELS 3 Zrotation Xrotation Yrotation
									JOINT LFingers
									{
OFFSET 0 -0.622780 0.000000
CHANNELS 3 Zrotation Xrotation Yrotation
										End Site
										{
OFFSET 0 -0.502100 0.000000
										}
									}
								}
								JOINT LThumb
								{
OFFSET 0 0.000000 0.000000
CHANNELS 3 Zrotation Xrotation Yrotation
									End Site
									{
OFFSET 0 -0.509760 0.509760
									}
								}
							}
						}
					}
				}
				JOINT RightCollar
				{
					OFFSET 0 0 0
					CHANNELS 3 Zrotation Yrotation Xrotation
					JOINT RightShoulder
					{
						OFFSET -3.75385 0.50666 -0.06525
CHANNELS 3 Zrotation Xrotation Yrotation
						JOINT RightElbow
						{
OFFSET 0 -4.964930 -0.000000
CHANNELS 3 Zrotation Xrotation Yrotation
							JOINT RightWrist
							{
OFFSET 0 -3.349290 0.000000
CHANNELS 3 Zrotation Xrotation Yrotation
								JOINT rhand
								{
									OFFSET 0 0 0
CHANNELS 3 Zrotation Xrotation Yrotation
									JOINT RFingers
									{
OFFSET 0 -0.638040 0.000000
CHANNELS 3 Zrotation Xrotation Yrotation
										End Site
										{
OFFSET 0 -0.514410 0.000000
										}
									}
								}
								JOINT RThumb
								{
OFFSET 0 0.000000 0.000000
CHANNELS 3 Zrotation Xrotation Yrotation
									End Site
									{
OFFSET 0 -0.522260 0.522260
									}
								}
							}
						}
					}
				}
			}
		}
	}
}
MOTION
Frames: 12
Frame Time: 0.008333333333333333
6.174255 15.722717 -0.950343 127.607075 -86.246051 -122.042456 0.000000 0.000000 0.000000 -4.288666 4.125717 -30.760184 6.252197 14.668311 45.985660 0.824341 -3.457634 -16.337357 0.461346 -4.356561 -12.081951 0.000000 0.000000 0.000000 2.889862 -7.727112 -33.417868 -6.088777 -14.513795 45.336936 -0.763095 -2.384775 -17.534825 -0.406806 4.093482 -11.339903 0.580235 0.747780 25.529841 1.345679 0.597017 7.357159 0.986243 0.023582 -6.030376 -3.921595 0.000467 -28.420585 -0.310195 1.736778 24.283187 0.844076 0.301877 12.786192 0.000000 0.000000 0.000000 6.946760 -12.767195 -71.335356 48.978478 -52.573851 25.360968 15.606061 -14.384227 14.091265 0.000000 0.000000 0.000000 -7.125000 0.000000 0.000000 -8.079651 15.469325 -5.689501 0.000000 0.000000 0.000000 -6.823397 -8.672490 26.618303 -48.481087 -52.364109 -24.966208 -13.300983 -16.022982 32.241934 0.000000 0.000000 0.000000 7.125000 0.000000 0.000000 22.289408 61.543430 -9.230938
6.238411 15.706550 -0.960269 75.935490 -86.210104 -69.718481 0.000000 0.000000 0.000000 -4.956543 1.573988 -32.405176 6.328438 14.739253 46.286029 0.747058 -3.932373 -15.473156 0.450131 -4.304366 -11.934534 0.000000 0.000000 0.000000 2.213930 -9.572242 -33.948424 -6.200307 -14.619551 45.780143 -0.764188 -3.617668 -18.216518 -0.456275 4.333168 -12.015790 0.623954 0.418536 26.147758 1.188528 0.266501 6.674241 0.892942 -0.102672 -7.087639 -3.327643 0.466139 -28.006963 -0.748866 2.247783 24.448910 0.670449 0.515735 12.777206 0.000000 0.000000 0.000000 7.686422 -13.916477 -71.871105 50.347183 -53.133268 26.452029 15.783690 -14.509993 14.051525 0.000000 0.000000 0.000000 -7.125000 0.000000 0.000000 -7.958063 15.495225 -5.597885 0.000000 0.000000 0.000000 -6.014662 -6.574805 25.712951 -49.146652 -52.644812 -25.494353 -13.422460 -16.358896 31.993545 0.000000 0.000000 0.000000 7.125000 0.000000 0.000000 21.945692 61.345586 -8.978598
6.232789 15.699088 -0.955497 54.597774 -85.784065 -48.414237 0.000000 0.000000 0.000000 -4.808756 0.853641 -32.848388 6.369047 14.776694 46.445604 0.709349 -4.486998 -15.028780 0.428413 -4.199029 -11.637462 0.000000 0.000000 0.000000 2.240990 -9.467340 -33.392753 -6.254617 -14.670617 45.995306 -0.779749 -4.773011 -19.082002 -0.435938 4.236874 -11.744018 0.914380 0.775856 26.383469 1.199066 0.809807 6.692132 0.567300 0.156439 -7.184548 -3.299506 0.609925 -28.035876 -0.408074 2.341409 24.697374 0.818111 0.604545 12.874600 0.000000 0.000000 0.000000 8.193092 -15.484398 -72.000697 51.805290 -53.696652 27.622918 16.426586 -14.776994 13.768846 0.000000 0.000000 0.000000 -7.125000 0.000000 0.000000 -7.515726 15.730664 -5.242804 0.000000 0.000000 0.000000 -5.458135 -4.835933 24.826233 -50.200762 -53.075190 -26.334851 -13.298163 -16.513288 32.915272 0.000000 0.000000 0.000000 7.125000 0.000000 0.000000 22.899141 62.156012 -9.831182
6.202377 15.700537 -0.933208 44.184754 -85.091532 -38.290789 0.000000 0.000000 0.000000 -4.956238 0.627718 -32.855460 6.404861 14.809547 46.585730 0.675373 -5.293940 -14.638409 0.342754 -3.761954 -10.407893 0.000000 0.000000 0.000000 1.976618 -9.456137 -32.422221 -6.240138 -14.657083 45.938105 -0.794186 -5.489208 -19.702051 -0.410029 4.110544 -11.387997 1.063200 1.256676 25.620370 1.220504 1.381879 7.613855 0.337072 0.414507 -5.784093 -3.127034 0.638640 -28.440677 -0.900964 2.479258 24.115256 0.623684 0.625438 12.726618 0.000000 0.000000 0.000000 8.452215 -18.198032 -71.712712 52.958868 -54.120883 28.554848 17.784345 -15.648377 13.928825 0.000000 0.000000 0.000000 -7.125000 0.000000 0.000000 -6.589309 15.446229 -4.627341 0.000000 0.000000 0.000000 -5.258661 -4.599914 24.122229 -50.617403 -53.241494 -26.668010 -13.120366 -16.865205 32.838612 0.000000 0.000000 0.000000 7.125000 0.000000 0.000000 23.018229 62.042022 -9.822627
6.174119 15.706237 -0.898885 36.578908 -84.387727 -30.808759 0.000000 0.000000 0.000000 -5.086661 0.461765 -33.174116 6.457644 14.857603 46.791822 0.641940 -5.931677 -14.288596 0.369795 -3.904214 -10.807548 0.000000 0.000000 0.000000 1.818170 -9.287109 -31.668246 -6.228156 -14.645830 45.890585 -0.780909 -6.452891 -20.258564 -0.402357 4.072308 -11.280144 1.485938 1.634718 25.803638 1.133392 1.961243 7.731278 -0.173572 0.693804 -5.724223 -3.059392 0.593180 -28.410174 -1.084023 2.440185 24.000569 0.533835 0.591929 12.680016 0.000000 0.000000 0.000000 8.742191 -19.716230 -71.374192 53.982829 -54.479976 29.386480 18.860617 -16.446139 13.525147 0.000000 0.000000 0.000000 -7.125000 0.000000 0.000000 -5.841838 15.767830 -4.057180 0.000000 0.000000 0.000000 -5.075884 -3.574674 23.752107 -50.744468 -53.291394 -26.769839 -12.981970 -16.695454 33.396187 0.000000 0.000000 0.000000 7.125000 0.000000 0.000000 23.688422 62.511227 -10.388300
6.208336 15.684962 -0.922797 25.409182 -82.263416 -19.499563 0.000000 0.000000 0.000000 -4.990338 -0.469549 -34.320531 6.516788 14.911044 47.022059 0.535930 -6.981966 -13.196523 0.442692 -4.269334 -11.835689 0.000000 0.000000 0.000000 1.932768 -9.910064 -31.350023 -6.300299 -14.713197 46.175325 -0.757080 -7.999588 -21.227145 -0.420926 4.164001 -11.538677 1.718456 1.607424 26.216460 1.258858 2.013364 7.724870 -0.193664 0.720127 -5.929627 -3.191833 0.270390 -28.560029 -0.879438 1.990855 23.922165 0.551594 0.415075 12.677228 0.000000 0.000000 0.000000 8.895039 -21.168037 -70.704385 54.966743 -54.812168 30.188785 19.153062 -16.651109 12.223448 0.000000 0.000000 0.000000 -7.125000 0.000000 0.000000 -5.609470 17.102020 -3.729785 0.000000 0.000000 0.000000 -5.095453 -2.962762 23.528464 -50.585188 -53.228803 -26.642156 -12.974406 -16.466347 32.921944 0.000000 0.000000 0.000000 7.125000 0.000000 0.000000 23.250460 62.080958 -9.948371
6.209130 15.663635 -0.916664 22.592043 -80.480626 -16.511482 0.000000 0.000000 0.000000 -5.449675 -1.053906 -35.058513 6.563730 14.953174 47.204220 0.462921 -7.993503 -12.537345 0.412772 -4.121527 -11.419255 0.000000 0.000000 0.000000 1.445269 -10.332265 -31.117519 -6.396955 -14.802229 46.554653 -0.756443 -8.933743 -22.003338 -0.430542 4.210681 -11.670116 1.581782 1.650086 25.874655 1.289728 2.013655 8.066194 -0.071604 0.724313 -5.391463 -3.373934 0.029265 -28.671139 -0.728434 1.690204 23.623551 0.583312 0.296131 12.578919 0.000000 0.000000 0.000000 8.622310 -22.539054 -69.371384 55.546839 -55.001315 30.663514 21.082109 -18.537870 12.960850 0.000000 0.000000 0.000000 -7.125000 0.000000 0.000000 -4.299803 16.141511 -2.930813 0.000000 0.000000 0.000000 -5.483880 -2.967510 23.636587 -50.545276 -53.213102 -26.610246 -12.924769 -16.098915 32.384083 0.000000 0.000000 0.000000 7.125000 0.000000 0.000000 22.816850 61.580189 -9.482222
6.211204 15.651252 -0.894914 21.016263 -79.304513 -14.723426 0.000000 0.000000 0.000000 -5.778300 -1.326492 -35.712589 6.604150 14.989202 47.360630 0.395247 -8.808817 -11.947441 0.330389 -3.693800 -10.216698 0.000000 0.000000 0.000000 1.104571 -10.368474 -30.936000 -6.452808 -14.853260 46.773084 -0.748179 -9.627991 -22.533036 -0.373637 3.925811 -10.868205 1.585784 1.749432 25.813224 1.307534 2.139011 8.199033 -0.088646 0.787868 -5.213898 -3.574191 -0.214585 -28.699819 -0.560222 1.385745 23.467727 0.623962 0.172401 12.523551 0.000000 0.000000 0.000000 8.218078 -23.260321 -67.805343 56.157786 -55.195955 31.164535 23.005517 -19.949738 12.689318 0.000000 0.000000 0.000000 -7.125000 0.000000 0.000000 -2.952352 16.246290 -2.011757 0.000000 0.000000 0.000000 -6.125663 -2.939225 24.042809 -50.649406 -53.253943 -26.693693 -13.126967 -15.237872 32.127780 0.000000 0.000000 0.000000 7.125000 0.000000 0.000000 22.379195 61.395740 -9.194347
6.225001 15.655167 -0.876222 19.758703 -78.435105 -13.230753 0.000000 0.000000 0.000000 -5.968149 -1.457274 -36.438983 6.653038 15.032620 47.549565 0.333080 -9.312929 -11.362622 0.288931 -3.456164 -9.551477 0.000000 0.000000 0.000000 0.953360 -10.312843 -30.823427 -6.466682 -14.865825 46.827169 -0.735923 -10.112909 -22.859514 -0.354621 3.825446 -10.586060 1.855863 1.809764 26.365331 1.268636 2.316116 7.957075 -0.354000 0.874550 -5.735426 -4.152708 -0.746019 -28.527144 0.082772 0.689363 23.490670 0.837118 -0.094379 12.506860 0.000000 0.000000 0.000000 7.761534 -23.092681 -66.295891 56.829214 -55.403669 31.716615 24.642388 -20.837161 11.204183 0.000000 0.000000 0.000000 -7.125000 0.000000 0.000000 -1.735189 17.692026 -1.132757 0.000000 0.000000 0.000000 -6.781193 -2.722404 24.250658 -51.306701 -53.509098 -27.221247 -12.622735 -14.373394 33.812621 0.000000 0.000000 0.000000 7.125000 0.000000 0.000000 24.477731 62.793039 -10.918284
6.233553 15.650264 -0.854987 19.435736 -78.145815 -12.593443 0.000000 0.000000 0.000000 -6.097356 -1.348268 -37.071603 6.705887 15.079138 47.752913 0.307712 -9.569025 -11.144967 0.270404 -3.344836 -9.240375 0.000000 0.000000 0.000000 0.836689 -10.001519 -31.026374 -6.471671 -14.870373 46.846487 -0.694014 -10.411884 -22.759537 -0.379010 3.953903 -10.947096 1.747450 1.902228 26.432902 1.317571 2.406678 8.019789 -0.266507 0.916763 -5.704854 -4.560674 -1.213439 -28.676085 0.485863 0.100333 23.178218 0.948818 -0.325696 12.423295 0.000000 0.000000 0.000000 7.354854 -22.994891 -63.944891 57.523942 -55.613195 32.289181 25.984140 -21.373717 9.224562 0.000000 0.000000 0.000000 -7.125000 0.000000 0.000000 -0.683197 19.739187 -0.412579 0.000000 0.000000 0.000000 -7.569975 -3.238072 24.997981 -51.137668 -53.444148 -27.085384 -12.498466 -14.145927 31.576414 0.000000 0.000000 0.000000 7.125000 0.000000 0.000000 22.567981 60.740397 -8.921250
6.225674 15.650210 -0.809651 21.336914 -78.973565 -14.257595 0.000000 0.000000 0.000000 -6.395375 -0.468280 -37.314233 6.772113 15.136887 48.007050 0.332250 -9.607367 -11.456604 0.287888 -3.450129 -9.534678 0.000000 0.000000 0.000000 0.557251 -9.379727 -31.484303 -6.476861 -14.875030 46.866766 -0.646646 -10.194425 -22.122028 -0.422933 4.172760 -11.563366 1.493506 2.177975 26.274784 1.245080 2.662320 8.223817 -0.269223 1.036796 -5.407479 -5.143147 -2.063976 -28.878743 1.021571 -0.981844 22.885717 1.047417 -0.772354 12.384747 0.000000 0.000000 0.000000 7.082771 -22.555794 -61.627744 57.977971 -55.746503 32.664117 25.442205 -23.004711 9.072573 0.000000 0.000000 0.000000 -7.125000 0.000000 0.000000 -1.063064 19.952542 -0.636762 0.000000 0.000000 0.000000 -8.198487 -3.933901 25.857392 -51.691955 -53.654868 -27.531389 -11.869470 -13.875480 30.933336 0.000000 0.000000 0.000000 7.125000 0.000000 0.000000 22.693113 60.004425 -8.573464
6.224093 15.646361 -0.753538 26.527322 -80.371759 -19.170213 0.000000 0.000000 0.000000 -6.951234 0.554564 -37.458273 6.858199 15.211314 48.335818 0.401153 -9.294990 -12.164868 0.327843 -3.679919 -10.178020 0.000000 0.000000 0.000000 -0.062831 -8.644917 -32.277269 -6.464901 -14.864154 46.820050 -0.607756 -9.523399 -21.123635 -0.469697 4.395298 -12.191645 0.815550 2.391129 26.262269 1.167250 2.738941 8.312131 0.012611 1.065268 -5.333431 -6.942328 -3.826930 -28.314508 2.701373 -3.191306 21.854735 1.571580 -1.657243 12.019820 0.000000 0.000000 0.000000 6.807062 -21.302553 -58.791641 58.256268 -55.827088 32.894198 24.745683 -24.612539 9.347581 0.000000 0.000000 0.000000 -7.125000 0.000000 0.000000 -1.573661 19.708278 -0.951260 0.000000 0.000000 0.000000 -9.071079 -5.077711 27.337793 -51.975011 -53.761602 -27.759343 -11.548575 -13.417996 30.709876 0.000000 0.000000 0.000000 7.125000 0.000000 0.000000 22.845178 59.726275 -8.480623
